<?xml version="1.0" encoding="utf-8"?>
<!-- Generator: Adobe Illustrator 25.0.0, SVG Export Plug-In . SVG Version: 6.00 Build 0)  -->
<svg version="1.1" id="圖層_1" xmlns="http://www.w3.org/2000/svg" xmlns:xlink="http://www.w3.org/1999/xlink" x="0px" y="0px"
	 viewBox="0 0 50 50" style="enable-background:new 0 0 50 50;" xml:space="preserve">
<style type="text/css">
	.st0{fill:none;stroke:#C4A87E;stroke-width:1.25;stroke-miterlimit:10;}
	.st1{fill:#C4A87E;stroke:#C4A87E;stroke-width:1.25;stroke-miterlimit:10;}
	.st2{fill:none;stroke:#C4A87E;stroke-miterlimit:10;}
	.st3{fill:none;stroke:#C4A87E;stroke-width:0.75;stroke-miterlimit:10;}
	.st4{fill:#C4A87E;}
</style>
<path class="st0" d="M24.88,12.13c-0.04-0.15-0.09-0.3-0.15-0.45"/>
<path class="st1" d="M43.85,23.02L25,44.64L6.15,23.02c0,0-7.3-11.37,1.14-17.12c8.15-5.55,15.79,1.27,17.44,5.77v0.92h0.03
	L25,13.24l0.24-0.65v-0.83c1.57-4.49,9.27-11.45,17.47-5.86C51.15,11.65,43.85,23.02,43.85,23.02z"/>
<path class="st0" d="M25.24,11.76c-0.05,0.13-0.09,0.25-0.12,0.37"/>
<path class="st2" d="M25.63,42.92"/>
<polyline class="st3" points="24.06,43.95 25,45.04 25.94,43.95 "/>
<line class="st3" x1="25.99" y1="10.51" x2="25.24" y2="12.58"/>
<polyline class="st3" points="24.76,12.59 24.73,12.49 24.07,10.67 "/>
<rect x="24.73" y="11.67" class="st4" width="0.51" height="0.92"/>
</svg>
