<svg id="圖層_1" data-name="圖層 1" xmlns="http://www.w3.org/2000/svg" viewBox="0 0 273.48 142.13"><defs><style>.cls-1{fill:#c4a87e;}</style></defs><path class="cls-1" d="M80.91,76.3a18.36,18.36,0,0,0,4.26-1.09c.78-.37,1.17-.78,1.17-1.24V30.66A10.46,10.46,0,0,0,86,27.37a2,2,0,0,0-1.27-1.24,22.83,22.83,0,0,0-3.42-.6V22.86q4.17-.62,7-1.26a39.43,39.43,0,0,0,5.63-1.8l1.64,1.57V74c0,.43.43.85,1.28,1.24A17.88,17.88,0,0,0,101,76.3v2.8H80.91Z" transform="translate(-11 -8.87)"/><path class="cls-1" d="M131.37,78.62a9.93,9.93,0,0,1-1.17-4.46,21.08,21.08,0,0,1-6.51,4.65,15.58,15.58,0,0,1-6.16,1.44,9.07,9.07,0,0,1-4.2-1,8.29,8.29,0,0,1-3.26-3,8.83,8.83,0,0,1-1.26-4.82,10,10,0,0,1,.86-4.25,12.24,12.24,0,0,1,2.43-3.4,15.27,15.27,0,0,1,3.27-2.47,26.17,26.17,0,0,1,5.4-2.07,79,79,0,0,1,9.39-1.89V52.81a6.48,6.48,0,0,0-1.11-4,4.48,4.48,0,0,0-3.79-1.46,5.4,5.4,0,0,0-2.33.54,4.74,4.74,0,0,0-1.88,1.55,3.94,3.94,0,0,0-.72,2.35l0,.46c0,.31-.69.72-2.13,1.24a39.26,39.26,0,0,1-4.68,1.38,9.57,9.57,0,0,1-3.14.44l-.8-2.07a14.16,14.16,0,0,1,4.22-5.47,23.33,23.33,0,0,1,7.08-3.94,24.34,24.34,0,0,1,8.24-1.45q5.06,0,7.62,2.52a8.94,8.94,0,0,1,2.56,6.66V70c0,2,.51,3,1.53,3a4.54,4.54,0,0,0,1.28-.21c.48-.15,1.21-.42,2.2-.83l.85,2.87a47.06,47.06,0,0,1-6.62,3.83,13.82,13.82,0,0,1-4.82,1.61A2.8,2.8,0,0,1,131.37,78.62Zm-1.21-17.54a40.33,40.33,0,0,0-6.35,1.43,8.21,8.21,0,0,0-3.06,1.78,8.63,8.63,0,0,0-1.67,2.24,6,6,0,0,0-.55,2.66,4.34,4.34,0,0,0,1.13,3.35,3.59,3.59,0,0,0,2.43,1,8.58,8.58,0,0,0,3.5-.86,20.8,20.8,0,0,0,4.57-3.16Z" transform="translate(-11 -8.87)"/><path class="cls-1" d="M158.37,79.52a21.63,21.63,0,0,1-5.55-2.07c-.15-.07-.27-.47-.36-1.18a22.27,22.27,0,0,1-.13-2.68c0-1.28.06-2.58.19-3.92a20.88,20.88,0,0,1,.57-3.43l3.1.42a13,13,0,0,0,1.87,4.69,9.67,9.67,0,0,0,3.28,3.1,8.16,8.16,0,0,0,4.11,1.09,6.79,6.79,0,0,0,4.11-1,3.87,3.87,0,0,0,1.32-3.27,5.16,5.16,0,0,0-1.24-3.41,12.29,12.29,0,0,0-3-2.57c-1.14-.71-2.82-1.64-5-2.79a28,28,0,0,1-6.5-4.38,7.29,7.29,0,0,1-2.41-5.52,8.11,8.11,0,0,1,1.93-5.38,12.61,12.61,0,0,1,5.07-3.58,17.68,17.68,0,0,1,6.65-1.26,27.25,27.25,0,0,1,6.55.8,13.65,13.65,0,0,1,5,2.15c.1.07.15.28.15.61a15.57,15.57,0,0,1-.8,4,12.63,12.63,0,0,1-1.57,3.69l-2.64-.31a11.5,11.5,0,0,0-2.75-5.14A5.92,5.92,0,0,0,166,46.39a5.4,5.4,0,0,0-3.53,1,3.29,3.29,0,0,0-1.29,2.66,4,4,0,0,0,.88,2.56,9,9,0,0,0,2.34,2c1,.6,2.43,1.41,4.4,2.43l1.14.61a44.38,44.38,0,0,1,4.84,2.78A11.85,11.85,0,0,1,178,63.7a7.9,7.9,0,0,1,1.32,4.57q0,4.94-2.64,7.6a12.82,12.82,0,0,1-6,3.51,24,24,0,0,1-12.28.14Z" transform="translate(-11 -8.87)"/><path class="cls-1" d="M195.11,79.52a21.41,21.41,0,0,1-5.54-2.07c-.16-.07-.28-.47-.37-1.18a22.27,22.27,0,0,1-.13-2.68c0-1.28.06-2.58.19-3.92a22,22,0,0,1,.57-3.43l3.1.42a12.84,12.84,0,0,0,1.88,4.69,9.56,9.56,0,0,0,3.27,3.1,8.21,8.21,0,0,0,4.11,1.09,6.79,6.79,0,0,0,4.11-1,3.87,3.87,0,0,0,1.32-3.27,5.16,5.16,0,0,0-1.24-3.41,12.43,12.43,0,0,0-3-2.57q-1.72-1.07-5-2.79a28.18,28.18,0,0,1-6.5-4.38,7.29,7.29,0,0,1-2.41-5.52,8.11,8.11,0,0,1,1.93-5.38,12.61,12.61,0,0,1,5.07-3.58,17.69,17.69,0,0,1,6.66-1.26,27.11,27.11,0,0,1,6.54.8,13.65,13.65,0,0,1,5,2.15c.11.07.16.28.16.61a15.69,15.69,0,0,1-.81,4,12.36,12.36,0,0,1-1.57,3.69l-2.63-.31a11.51,11.51,0,0,0-2.76-5.14,5.91,5.91,0,0,0-4.32-1.78,5.41,5.41,0,0,0-3.54,1,3.28,3.28,0,0,0-1.28,2.66,4,4,0,0,0,.88,2.56,8.8,8.8,0,0,0,2.33,2q1.45.9,4.4,2.43l1.15.61a46.39,46.39,0,0,1,4.84,2.78,12,12,0,0,1,3.21,3.21A7.9,7.9,0,0,1,216,68.27q0,4.94-2.64,7.6a12.82,12.82,0,0,1-6,3.51,24,24,0,0,1-12.28.14Z" transform="translate(-11 -8.87)"/><path class="cls-1" d="M225.28,76.3A16.56,16.56,0,0,0,229,75.18c.86-.43,1.3-.83,1.3-1.21V52.7a10.63,10.63,0,0,0-.29-3,2.14,2.14,0,0,0-1.3-1.3,13.18,13.18,0,0,0-3.46-.65V45.12a56.14,56.14,0,0,0,11.78-2.75h2.45V74c0,.36.42.76,1.26,1.21a13.78,13.78,0,0,0,3.83,1.12v2.8H225.28Zm5.51-40.72a3.67,3.67,0,0,1-1.5-3.16,5.47,5.47,0,0,1,.84-3,5.77,5.77,0,0,1,2.32-2.05,7.25,7.25,0,0,1,3.23-.72,6.31,6.31,0,0,1,3.77,1.07A3.59,3.59,0,0,1,241,30.85,5.33,5.33,0,0,1,239.14,35a6.61,6.61,0,0,1-4.61,1.63A6.2,6.2,0,0,1,230.79,35.58Z" transform="translate(-11 -8.87)"/><path class="cls-1" d="M260.83,78.05A16,16,0,0,1,255,71.71a20.06,20.06,0,0,1-2.2-9.6,19.37,19.37,0,0,1,2.64-10A19.07,19.07,0,0,1,262.8,45a21.59,21.59,0,0,1,10.66-2.62,24.19,24.19,0,0,1,6.12.88,10.19,10.19,0,0,1,4.59,2.14,8.47,8.47,0,0,1-.44,2.76c-.37,1.42-.82,2.87-1.34,4.34a15.87,15.87,0,0,1-1.24,2.89L278.59,55a16.1,16.1,0,0,0-3.2-5.89,6.34,6.34,0,0,0-4.8-2,7.06,7.06,0,0,0-4.32,1.46,9.68,9.68,0,0,0-3.12,4.57A22.62,22.62,0,0,0,262,61a16.19,16.19,0,0,0,1.34,6.81,10.41,10.41,0,0,0,3.62,4.44A8.85,8.85,0,0,0,272,73.82a13.85,13.85,0,0,0,2.93-.29,12.59,12.59,0,0,0,3.1-1.24,36.29,36.29,0,0,0,4.38-2.91l2.07,2.45a33.3,33.3,0,0,1-5.84,5.43,15.69,15.69,0,0,1-4.93,2.41,20.74,20.74,0,0,1-5,.58A15,15,0,0,1,260.83,78.05Z" transform="translate(-11 -8.87)"/><path class="cls-1" d="M41.56,81.82A30.56,30.56,0,1,1,72.11,51.26,30.6,30.6,0,0,1,41.56,81.82Zm0-54.2A23.64,23.64,0,1,0,65.19,51.26,23.66,23.66,0,0,0,41.56,27.62Z" transform="translate(-11 -8.87)"/><path class="cls-1" d="M41.56,151a30.56,30.56,0,1,1,30.55-30.56A30.6,30.6,0,0,1,41.56,151Zm0-54.19a23.64,23.64,0,1,0,23.63,23.63A23.66,23.66,0,0,0,41.56,96.81Z" transform="translate(-11 -8.87)"/><rect class="cls-1" x="14.76" y="49.79" width="51.72" height="4.61" transform="translate(-32.37 20.39) rotate(-31.83)"/><rect class="cls-1" x="14.76" y="118.98" width="51.72" height="4.61" transform="translate(-68.85 30.79) rotate(-31.83)"/><path class="cls-1" d="M31,95.23c-.21-.15-5.12-3.68-5.32-9.06-.13-3.43,1.62-6.65,5.19-9.59l2.93,3.56c-2.4,2-3.58,3.93-3.52,5.84.11,3.09,3.36,5.46,3.39,5.49Z" transform="translate(-11 -8.87)"/><path class="cls-1" d="M28,28.89a2.55,2.55,0,0,1-1.68-.64c-1.69-1.51-.47-4.09,0-5.06,2.78-5.85,11.9-16.31,26.57-14l-.72,4.56a19.41,19.41,0,0,0-15,3.65c-4.79,3.54-6.94,8.05-7.06,8.88a2,2,0,0,0-3-1.78l2.43,3.92A2.86,2.86,0,0,1,28,28.89Z" transform="translate(-11 -8.87)"/><path class="cls-1" d="M96,118.75a12.4,12.4,0,0,0,.86,4.37,6.89,6.89,0,0,0,2.19,3,5.36,5.36,0,0,0,3.36,1.08,10.62,10.62,0,0,0,2.19-.22,10.08,10.08,0,0,0,2.32-.88,28.77,28.77,0,0,0,3.24-2,2.5,2.5,0,0,1,.69.7c.27.37.48.68.64.93a32,32,0,0,1-4.1,3.6,11.11,11.11,0,0,1-3.36,1.68,13.75,13.75,0,0,1-3.77.46,9.79,9.79,0,0,1-5.3-1.52,10.65,10.65,0,0,1-3.85-4.27,13.27,13.27,0,0,1-1.43-6.25A14.08,14.08,0,0,1,91,113.23a12.79,12.79,0,0,1,7.22-6.35,11.1,11.1,0,0,1,3.75-.68,9.58,9.58,0,0,1,5.38,1.43,8.71,8.71,0,0,1,3.23,3.8,12.76,12.76,0,0,1,1.06,5.23,6.06,6.06,0,0,1-1.53,1.09,17.24,17.24,0,0,1-2,1Zm8.57-2.86a1.14,1.14,0,0,0,.77-.19,1,1,0,0,0,.2-.72,8,8,0,0,0-.43-2.52,5.32,5.32,0,0,0-1.44-2.25,3.67,3.67,0,0,0-2.62-.95A4,4,0,0,0,97.61,111a10.34,10.34,0,0,0-1.49,4.92Z" transform="translate(-11 -8.87)"/><path class="cls-1" d="M129,132.6a20.93,20.93,0,0,1-5,8.06,9.16,9.16,0,0,1-6.26,2.6,10.55,10.55,0,0,1-2.43-.29,9.1,9.1,0,0,1-2-.7c-.52-.28-.78-.52-.78-.74a3.39,3.39,0,0,1,.71-1.3,22.1,22.1,0,0,1,1.62-2,7.25,7.25,0,0,1,1.42-1.3,6.85,6.85,0,0,0,1.69.8,5.84,5.84,0,0,0,1.7.27,4,4,0,0,0,1.4-.23,5.29,5.29,0,0,0,2.11-1.53,11.36,11.36,0,0,0,1.9-3.22l.74-1.76-8.55-20.71a2.16,2.16,0,0,0-.91-1.07,7,7,0,0,0-1.92-.66V107h11.56v1.86a9.43,9.43,0,0,0-2,.39c-.35.15-.53.36-.53.63a1.79,1.79,0,0,0,.2.71L129,123.37l5-12.81a2.32,2.32,0,0,0,.18-.71.67.67,0,0,0-.46-.59,6.57,6.57,0,0,0-1.7-.43V107h8.34v1.86a11.57,11.57,0,0,0-1.59.46,2,2,0,0,0-.77.48,2.19,2.19,0,0,0-.45.79Z" transform="translate(-11 -8.87)"/><path class="cls-1" d="M149.52,118.75a12.4,12.4,0,0,0,.85,4.37,6.89,6.89,0,0,0,2.19,3,5.4,5.4,0,0,0,3.36,1.08,10.54,10.54,0,0,0,2.19-.22,10.08,10.08,0,0,0,2.32-.88,27.08,27.08,0,0,0,3.24-2,2.5,2.5,0,0,1,.69.7c.27.37.49.68.64.93a32,32,0,0,1-4.1,3.6,11,11,0,0,1-3.36,1.68,13.72,13.72,0,0,1-3.76.46,9.82,9.82,0,0,1-5.31-1.52,10.73,10.73,0,0,1-3.85-4.27,13.39,13.39,0,0,1-1.43-6.25,14,14,0,0,1,1.33-6.18,12.19,12.19,0,0,1,3.93-4.63,12.32,12.32,0,0,1,3.29-1.72,11,11,0,0,1,3.75-.68,9.61,9.61,0,0,1,5.38,1.43,8.69,8.69,0,0,1,3.22,3.8,12.6,12.6,0,0,1,1.06,5.23,6.06,6.06,0,0,1-1.53,1.09,17.24,17.24,0,0,1-2,1Zm8.57-2.86a1.12,1.12,0,0,0,.76-.19,1,1,0,0,0,.21-.72,8.06,8.06,0,0,0-.44-2.52,5.32,5.32,0,0,0-1.44-2.25,3.66,3.66,0,0,0-2.61-.95,4,4,0,0,0-3.49,1.71,10.45,10.45,0,0,0-1.49,4.92Z" transform="translate(-11 -8.87)"/><path class="cls-1" d="M196.57,129.18a2.36,2.36,0,0,1-1.35,1.48,11.31,11.31,0,0,1-2.32.79l-6.51-14.89-5.18,12.62a2.49,2.49,0,0,1-1.36,1.49,10.49,10.49,0,0,1-2.23.78l-6.86-21a1.77,1.77,0,0,0-.86-.89,7.24,7.24,0,0,0-1.92-.69V107h11.55v1.86a7.88,7.88,0,0,0-2.26.48c-.41.21-.62.44-.62.72a1.1,1.1,0,0,0,.07.38l3.83,12,6.1-15.48h2l6.4,15.48,3.67-12a2.4,2.4,0,0,0,.11-.46c0-.26-.17-.47-.5-.64a7.11,7.11,0,0,0-1.82-.48V107h8.28v1.86a8,8,0,0,0-1.86.66,1.68,1.68,0,0,0-.69.92Z" transform="translate(-11 -8.87)"/><path class="cls-1" d="M213.93,118.75a12.63,12.63,0,0,0,.85,4.37,6.83,6.83,0,0,0,2.2,3,5.36,5.36,0,0,0,3.35,1.08,10.72,10.72,0,0,0,2.2-.22,10.26,10.26,0,0,0,2.32-.88,28.77,28.77,0,0,0,3.24-2,2.65,2.65,0,0,1,.68.7,10.74,10.74,0,0,1,.64.93,32,32,0,0,1-4.09,3.6A11.15,11.15,0,0,1,222,131a13.67,13.67,0,0,1-3.76.46,9.85,9.85,0,0,1-5.31-1.52,10.8,10.8,0,0,1-3.85-4.27,13.39,13.39,0,0,1-1.43-6.25,14.08,14.08,0,0,1,1.33-6.18,12.79,12.79,0,0,1,7.22-6.35,11.1,11.1,0,0,1,3.75-.68,9.61,9.61,0,0,1,5.38,1.43,8.71,8.71,0,0,1,3.23,3.8,12.76,12.76,0,0,1,1.06,5.23,6,6,0,0,1-1.54,1.09,17.24,17.24,0,0,1-2,1Zm8.57-2.86a1.11,1.11,0,0,0,.76-.19,1,1,0,0,0,.21-.72,8.34,8.34,0,0,0-.43-2.52,5.24,5.24,0,0,0-1.45-2.25,3.66,3.66,0,0,0-2.61-.95A4,4,0,0,0,215.5,111a10.34,10.34,0,0,0-1.49,4.92Z" transform="translate(-11 -8.87)"/><path class="cls-1" d="M248.75,130.37a6.8,6.8,0,0,1-.78-3,13.88,13.88,0,0,1-4.33,3.09,10.43,10.43,0,0,1-4.11,1,6.08,6.08,0,0,1-2.8-.67,5.43,5.43,0,0,1-2.17-2,5.86,5.86,0,0,1-.84-3.21,6.62,6.62,0,0,1,.57-2.83,7.91,7.91,0,0,1,1.62-2.27,10.33,10.33,0,0,1,2.18-1.65,17.87,17.87,0,0,1,3.6-1.37,52.9,52.9,0,0,1,6.26-1.27v-3a4.3,4.3,0,0,0-.74-2.67,3,3,0,0,0-2.53-1,3.76,3.76,0,0,0-1.55.35,3.17,3.17,0,0,0-1.25,1,2.64,2.64,0,0,0-.49,1.57l0,.3c0,.2-.46.48-1.42.83a26.81,26.81,0,0,1-3.12.92,6.41,6.41,0,0,1-2.09.29l-.54-1.38a9.52,9.52,0,0,1,2.82-3.64,15.54,15.54,0,0,1,4.72-2.63,16.15,16.15,0,0,1,5.5-1,7,7,0,0,1,5.07,1.68,6,6,0,0,1,1.71,4.44v12.3c0,1.32.34,2,1,2a3.2,3.2,0,0,0,.86-.14c.31-.1.8-.28,1.46-.55l.56,1.91a30.68,30.68,0,0,1-4.41,2.55,9.21,9.21,0,0,1-3.21,1.07A1.88,1.88,0,0,1,248.75,130.37Zm-.8-11.7a28.26,28.26,0,0,0-4.23,1,5.46,5.46,0,0,0-2.05,1.18,5.74,5.74,0,0,0-1.1,1.5,3.91,3.91,0,0,0-.37,1.77,2.87,2.87,0,0,0,.75,2.23,2.39,2.39,0,0,0,1.62.68,5.58,5.58,0,0,0,2.33-.58,13.73,13.73,0,0,0,3-2.1Z" transform="translate(-11 -8.87)"/><path class="cls-1" d="M277.78,115.92a9.68,9.68,0,0,0-.9-3.6,2.19,2.19,0,0,0-1.93-1.4c-1.93,0-3.69,1.73-5.25,5.2v11.15c0,.27.37.54,1.12.81a17.77,17.77,0,0,0,3.39.74v1.87h-14v-1.87a13.53,13.53,0,0,0,2.54-.76c.55-.26.83-.52.83-.79V113.75a11,11,0,0,0-.16-2.24,2,2,0,0,0-.43-1,1.78,1.78,0,0,0-.87-.48,11.08,11.08,0,0,0-1.91-.21V108c1.87-.29,3.32-.55,4.36-.78a36,36,0,0,0,3.68-1.06l1.07,1.07.33,3.7a12.79,12.79,0,0,1,3.49-3.43,7.49,7.49,0,0,1,4.13-1.34,7.77,7.77,0,0,1,2,.29,9.27,9.27,0,0,1,2,.83c.11.07.16.29.16.67a20.22,20.22,0,0,1-.64,4,25.31,25.31,0,0,1-1.17,3.93Z" transform="translate(-11 -8.87)"/></svg>